<svg width="48" height="48" viewBox="0 0 48 48" fill="none" xmlns="http://www.w3.org/2000/svg">
<path fill-rule="evenodd" clip-rule="evenodd" d="M23.3292 0.658359C23.7515 0.447214 24.2485 0.447214 24.6708 0.658359L46.6708 11.6584C47.179 11.9124 47.5 12.4318 47.5 13V35C47.5 35.5682 47.179 36.0876 46.6708 36.3416L24.6708 47.3416C24.2485 47.5528 23.7515 47.5528 23.3292 47.3416L1.32918 36.3416C0.821004 36.0876 0.5 35.5682 0.5 35V13C0.5 12.4318 0.821004 11.9124 1.32918 11.6584L23.3292 0.658359ZM3.5 13.9271V34.0729L24 44.3229L44.5 34.0729V13.927L24 3.67705L3.5 13.9271Z" fill="#1B344B"/>
<path fill-rule="evenodd" clip-rule="evenodd" d="M0.639846 12.3687C0.988706 11.6173 1.88064 11.291 2.63203 11.6398L24.0004 21.5609L45.3687 11.6398C46.1201 11.291 47.012 11.6173 47.3609 12.3687C47.7097 13.1201 47.3834 14.012 46.632 14.3609L25.5004 24.172V46.0004C25.5004 46.8288 24.8288 47.5004 24.0004 47.5004C23.1719 47.5004 22.5004 46.8288 22.5004 46.0004V24.172L1.36869 14.3609C0.617302 14.012 0.290986 13.1201 0.639846 12.3687Z" fill="#1B344B"/>
<path fill-rule="evenodd" clip-rule="evenodd" d="M36.3463 6.83893C36.7116 7.58248 36.4049 8.48136 35.6614 8.84664L14.5 19.2426V29.6471C14.5 30.4755 13.8284 31.1471 13 31.1471C12.1716 31.1471 11.5 30.4755 11.5 29.6471V18.3083C11.5 17.7364 11.8253 17.2142 12.3386 16.962L34.3386 6.15403C35.0821 5.78875 35.981 6.09539 36.3463 6.83893Z" fill="#1B344B"/>
<path d="M29.5954 25.3536C28.7989 25.3536 28.2355 26.1327 28.4851 26.8891L30.4477 32.8385C30.6764 33.5317 31.324 34 32.054 34V34C32.7766 34 33.4194 33.5409 33.6539 32.8574L35.7382 26.7809C35.9781 26.0814 35.4583 25.3536 34.7188 25.3536V25.3536C34.2397 25.3536 33.8181 25.6699 33.6828 26.1295C33.0212 28.377 32.3482 30.5985 32.1288 31.8724C32.128 31.877 32.1241 31.8801 32.1194 31.8801V31.8801C32.1147 31.8801 32.1108 31.877 32.11 31.8724C31.9623 30.9363 31.4101 28.7775 30.7234 26.2181C30.5866 25.7079 30.1237 25.3536 29.5954 25.3536V25.3536Z" fill="#1B344B"/>
<path d="M40.1415 34C40.7949 34 41.3246 33.4703 41.3246 32.8169V24.1318C41.3246 23.5067 40.8179 23 40.1928 23V23C39.8619 23 39.5531 23.1512 39.3046 23.3697C38.8789 23.7439 38.3388 24.0632 37.7649 24.2766C37.3483 24.4315 37.0298 24.8062 37.0298 25.2507V25.2507C37.0298 25.7985 37.502 26.2231 38.0342 26.0931C38.3811 26.0084 38.7203 25.902 38.9584 25.7876V32.8169C38.9584 33.4703 39.4881 34 40.1415 34V34Z" fill="#1B344B"/>
</svg>
